<svg width="288" height="190" viewBox="0 0 288 190" fill="none" xmlns="http://www.w3.org/2000/svg">
<g clip-path="url(#clip0_13_1059)">
<path d="M172.852 143.569C180.766 143.327 189.57 143.279 197.46 143.569C198.013 143.569 199.143 143.231 199.023 144.028C183.556 146.371 166.743 147.531 152.094 153.329C134.63 160.238 126.236 175.191 116.903 190H349C348.182 188.937 347.244 187.874 346.186 186.86C335.361 176.254 321.602 166.084 309.624 156.711C285.305 166.205 260.096 170.022 234.022 167.123C216.679 165.214 199.889 160.334 182.859 156.832C176.845 155.6 170.639 155.092 164.722 153.522L176.364 150.502C190.676 148.207 203.834 145.912 217.064 140.163C226.517 136.056 238.159 128.591 248.214 126.804C244.124 123.929 239.121 121.513 234.527 119.46C220.648 113.299 201.164 107.622 185.914 109.12C185.649 109.144 185.336 108.999 185.096 109.193L174.608 125.427C174.031 125.523 174.031 125.547 173.67 125.137C171.698 122.914 169.389 118.59 167.584 115.933C167.127 115.256 166.237 114.821 166.045 114.531C158.925 116.102 152.575 119.87 146.176 123.156C150.674 125.91 155.413 129.34 159.671 132.505C164.265 135.911 168.595 139.704 172.804 143.569H172.852Z" fill="#47C700"/>
<path d="M120.487 162.847C129.146 155.261 142.761 148.28 153.898 145.405C150.001 144.463 145.455 145.018 141.486 145.405C102.879 149.149 65.7397 166.664 27.0608 171.254C19.7484 178.308 9.5254 182.487 1.63567 188.55C1.03432 189.009 0.505135 189.517 0 190.024H99.3191C105.669 180.385 111.803 170.456 120.487 162.847Z" fill="#47C700"/>
<path d="M167.633 115.957C169.461 118.614 171.746 122.938 173.718 125.161C174.079 125.571 174.055 125.547 174.656 125.451L185.144 109.217C185.384 109.023 185.697 109.168 185.962 109.144C201.501 82.136 230.967 50.0788 208.452 18.3356C181.319 -19.9301 123.614 6.71577 132.899 52.9535C136.386 70.2746 155.822 99.5537 166.093 114.604C166.286 114.87 167.176 115.329 167.633 116.005V115.957ZM171.866 21.307C199.817 17.9249 206.576 59.2104 179.66 64.9599C148.365 71.6274 143.025 24.8099 171.866 21.307Z" fill="#2C8F53"/>
<path d="M153.898 145.381C159.911 143.811 166.767 143.762 172.852 143.569C168.643 139.704 164.313 135.911 159.719 132.505C155.461 129.34 150.723 125.91 146.225 123.156C124.047 109.603 99.6559 105.497 76.8286 120.329C62.0835 129.896 51.9808 144.777 40.3627 157.605C36.1051 162.315 31.4867 166.688 27.0367 171.205C65.7156 166.64 102.855 149.101 141.462 145.357C145.431 144.97 149.977 144.39 153.874 145.357L153.898 145.381Z" fill="#2C8F53"/>
<path d="M176.388 150.526L164.746 153.546C170.663 155.116 176.869 155.624 182.883 156.856C199.889 160.358 216.703 165.214 234.046 167.147C260.12 170.022 285.353 166.205 309.648 156.735C292.521 143.327 271.618 122.624 248.262 126.803C238.207 128.615 226.565 136.056 217.112 140.163C203.882 145.912 190.7 148.207 176.412 150.502L176.388 150.526Z" fill="#2C8F53"/>
<path d="M179.66 64.9358C206.576 59.1863 199.817 17.9009 171.866 21.283C143.025 24.7858 148.365 71.6034 179.66 64.9358Z" fill="#FEFEFE"/>
</g>
<defs>
<clipPath id="clip0_13_1059">
<rect width="349" height="190" fill="white"/>
</clipPath>
</defs>
</svg>
